<?xml version="1.0" encoding="utf-8"?>
<svg fill="none" width="32px" height="32px" xmlns="http://www.w3.org/2000/svg" xmlns:bx="https://boxy-svg.com">
  <path fill-rule="evenodd" clip-rule="evenodd" d="M 32 16 C 32 23.732 24.836 30 16 30 C 13.16 30.012 10.359 29.34 7.834 28.04 L 0 30 L 2.676 23.754 C 0.986 21.534 0 18.868 0 16 C 0 8.268 7.164 2 16 2 C 24.836 2 32 8.268 32 16 Z M 10 14 L 6 14 L 6 18 L 10 18 L 10 14 Z M 26 14 L 22 14 L 22 18 L 26 18 L 26 14 Z M 14 14 L 18 14 L 18 18 L 14 18 L 14 14 Z" fill="currentColor" bx:origin="0 0"/>
</svg>
