<svg width="20" height="20" viewBox="0 0 20 20" fill="none" xmlns="http://www.w3.org/2000/svg">
<path fill-rule="evenodd" clip-rule="evenodd" d="M1.93963 10.0008C1.93967 9.73567 2.04502 9.48137 2.23252 9.29387C2.42002 9.10637 2.67431 9.00102 2.93948 9.00098L9.01069 9.00098L9.01069 2.92976C9.00839 2.797 9.03254 2.6651 9.08175 2.54177C9.13097 2.41845 9.20425 2.30615 9.29732 2.21145C9.39039 2.11674 9.50139 2.04152 9.62385 1.99018C9.7463 1.93883 9.87776 1.91238 10.0105 1.91238C10.1433 1.91238 10.2748 1.93883 10.3972 1.99018C10.5197 2.04152 10.6307 2.11674 10.7238 2.21145C10.8168 2.30615 10.8901 2.41845 10.9393 2.54177C10.9885 2.6651 11.0127 2.797 11.0104 2.92976L11.0104 9.00098H17.0816C17.3438 9.00554 17.5937 9.11288 17.7775 9.29989C17.9612 9.48691 18.0642 9.73862 18.0642 10.0008C18.0642 10.263 17.9612 10.5148 17.7775 10.7018C17.5937 10.8888 17.3438 10.9961 17.0816 11.0007H11.0104V17.0719C11.0058 17.3341 10.8985 17.584 10.7115 17.7677C10.5245 17.9515 10.2727 18.0545 10.0105 18.0545C9.74834 18.0545 9.49662 17.9515 9.30961 17.7677C9.12259 17.584 9.01525 17.3341 9.01069 17.0719V11.0007L2.93948 11.0007C2.67431 11.0006 2.42002 10.8953 2.23252 10.7078C2.04502 10.5203 1.93967 10.266 1.93963 10.0008V10.0008Z" fill="currentColor"/>
</svg>
