<svg width="24" height="24"  fill="none" xmlns="http://www.w3.org/2000/svg">
<path d="M4.32086 19L6.97937 8.25806L7.75859 11.8871C6.68908 11.8871 5.78762 11.5323 5.05424 10.8226C4.35141 10.1129 4 9.16129 4 7.96774C4 6.77419 4.35141 5.82258 5.05424 5.1129C5.78762 4.37097 6.6738 4 7.71276 4C8.78228 4 9.66845 4.37097 10.3713 5.1129C11.0741 5.85484 11.4255 6.80645 11.4255 7.96774C11.4255 8.32258 11.395 8.69355 11.3338 9.08064C11.3033 9.43548 11.2116 9.85484 11.0588 10.3387C10.9366 10.7903 10.7227 11.3871 10.4171 12.129L8.03361 19H4.32086ZM14.0382 19L16.6967 8.25806L17.4759 11.8871C16.4064 11.8871 15.505 11.5323 14.7716 10.8226C14.0688 10.1129 13.7173 9.16129 13.7173 7.96774C13.7173 6.77419 14.0688 5.82258 14.7716 5.1129C15.505 4.37097 16.3911 4 17.4301 4C18.4996 4 19.3858 4.37097 20.0886 5.1129C20.7914 5.85484 21.1429 6.80645 21.1429 7.96774C21.1429 8.32258 21.1123 8.69355 21.0512 9.08064C21.0206 9.43548 20.929 9.85484 20.7762 10.3387C20.6539 10.7903 20.44 11.3871 20.1345 12.129L17.751 19H14.0382Z" fill="currentColor"/>
</svg>
