<svg width="39" height="39" viewBox="0 0 39 39" fill="none" xmlns="http://www.w3.org/2000/svg">
<path fill-rule="evenodd" clip-rule="evenodd" d="M20.5752 30.8622C26.3901 30.0575 30.8626 25.1653 30.8626 19.2491C30.8626 15.6554 29.2117 12.4393 26.6116 10.2874L20.5752 16.1992V30.8622Z" fill="#252525"/>
<path fill-rule="evenodd" clip-rule="evenodd" d="M17.5042 30.8622V16.1992L11.4678 10.2874C8.86836 12.4393 7.2168 15.6554 7.2168 19.2491C7.2168 25.1653 11.69 30.0575 17.5042 30.8622Z" fill="#252525"/>
<path fill-rule="evenodd" clip-rule="evenodd" d="M29.9262 9.25355C32.7112 12.0219 34.2447 15.7025 34.2447 19.6168C34.2447 23.5318 32.7112 27.2124 29.9262 29.9807C27.1412 32.749 23.4383 34.2733 19.5003 34.2733C15.5617 34.2733 11.8588 32.749 9.07381 29.9807C6.28877 27.2124 4.7553 23.5318 4.7553 19.6168C4.7553 15.7025 6.28877 12.0219 9.07381 9.25355C9.31274 9.01605 9.55926 8.78797 9.81147 8.56932L6.44301 5.22046C6.19396 5.44414 5.94997 5.67409 5.71166 5.91159C3.92155 7.69095 2.51576 9.7631 1.53348 12.0715C0.515794 14.4628 0 17.0012 0 19.6168C0 22.2331 0.515794 24.7714 1.53348 27.1627C2.51576 29.4705 3.92155 31.5433 5.71166 33.3226C7.50177 35.102 9.58708 36.4993 11.9094 37.4757C14.3146 38.4873 16.8689 39 19.5003 39C22.1318 39 24.6854 38.4873 27.0912 37.4757C29.4136 36.4993 31.4989 35.102 33.289 33.3226C35.0784 31.5433 36.4842 29.4705 37.4665 27.1627C38.4842 24.7714 39 22.2331 39 19.6168C39 17.0012 38.4842 14.4628 37.4665 12.0715C36.4842 9.7631 35.0784 7.69095 33.289 5.91159C33.05 5.67409 32.806 5.44414 32.5576 5.22046L29.1885 8.56932C29.4407 8.78797 29.6873 9.01605 29.9262 9.25355Z" fill="#252525"/>
<path fill-rule="evenodd" clip-rule="evenodd" d="M19.5769 0C23.0111 0 25.7954 2.7844 25.7954 6.21883C25.7954 9.65325 23.0111 12.437 19.5769 12.437C16.1427 12.437 13.3584 9.65325 13.3584 6.21883C13.3584 2.7844 16.1427 0 19.5769 0Z" fill="#252525"/>
</svg>
