<?xml version="1.0" encoding="utf-8"?>
<svg version="1.1" id="Ebene_1" x="0px" y="0px" style="enable-background:new 0 0 39 39;" width="39px" height="39px" xmlns="http://www.w3.org/2000/svg">
  <style type="text/css">
	.st0{fill:#1D1D1B;}
</style>
  <g>
    <path class="st0" d="M21.1,31.4c5.8-0.8,10.3-5.8,10.3-11.8c0-3.7-1.6-6.9-4.2-9.1l-6,6V31.4L21.1,31.4z"/>
    <path class="st0" d="M17.8,31.4v-15l-6-6c-2.6,2.2-4.2,5.5-4.2,9.1C7.5,25.6,11.9,30.6,17.8,31.4L17.8,31.4z"/>
    <path class="st0" d="M29.8,9.2c2.8,2.8,4.3,6.5,4.3,10.4c0,3.9-1.5,7.6-4.3,10.4c-2.8,2.8-6.5,4.3-10.4,4.3 c-3.9,0-7.6-1.5-10.4-4.3c-2.8-2.8-4.3-6.5-4.3-10.4c0-3.9,1.5-7.6,4.3-10.4c0.2-0.2,0.5-0.5,0.7-0.7L6.4,5.1 C6.2,5.3,5.9,5.6,5.7,5.8C3.9,7.6,2.5,9.7,1.5,12c-1,2.4-1.5,4.9-1.5,7.6c0,2.6,0.5,5.2,1.5,7.6c1,2.3,2.4,4.4,4.2,6.2 c1.8,1.8,3.9,3.2,6.2,4.2c2.4,1,4.9,1.5,7.6,1.5c2.6,0,5.2-0.5,7.6-1.5c2.3-1,4.4-2.4,6.2-4.2c1.8-1.8,3.2-3.9,4.2-6.2 c1-2.4,1.5-4.9,1.5-7.6c0-2.6-0.5-5.2-1.5-7.6c-1-2.3-2.4-4.4-4.2-6.2c-0.2-0.2-0.5-0.5-0.7-0.7l-3.4,3.4 C29.4,8.7,29.6,8.9,29.8,9.2L29.8,9.2z"/>
    <path class="st0" d="M19.4,0c3.3,0,6.1,2.7,6.1,6.1c0,3.3-2.7,6.1-6.1,6.1c-3.3,0-6.1-2.7-6.1-6.1C13.4,2.7,16.1,0,19.4,0L19.4,0z"/>
  </g>
</svg>