<svg width="280" height="39" viewBox="0 0 280 39" fill="none" xmlns="http://www.w3.org/2000/svg">
<path fill-rule="evenodd" clip-rule="evenodd" d="M20.5751 30.8622C26.39 30.0575 30.8625 25.1653 30.8625 19.2491C30.8625 15.6554 29.2116 12.4393 26.6115 10.2874L20.5751 16.1992V30.8622Z" fill="#252525"/>
<path fill-rule="evenodd" clip-rule="evenodd" d="M17.5039 30.8622V16.1992L11.4675 10.2874C8.86805 12.4393 7.21649 15.6554 7.21649 19.2491C7.21649 25.1653 11.6897 30.0575 17.5039 30.8622" fill="#252525"/>
<path fill-rule="evenodd" clip-rule="evenodd" d="M29.9262 9.25367C32.7112 12.022 34.2447 15.7026 34.2447 19.6169C34.2447 23.5319 32.7112 27.2125 29.9262 29.9808C27.1412 32.7491 23.4383 34.2734 19.5003 34.2734C15.5617 34.2734 11.8588 32.7491 9.07381 29.9808C6.28877 27.2125 4.7553 23.5319 4.7553 19.6169C4.7553 15.7026 6.28877 12.022 9.07381 9.25367C9.31274 9.01617 9.55926 8.78809 9.81147 8.56944L6.44301 5.22058C6.19396 5.44426 5.94997 5.67422 5.71166 5.91172C3.92155 7.69107 2.51576 9.76322 1.53348 12.0716C0.515794 14.4629 0 17.0013 0 19.6169C0 22.2332 0.515794 24.7715 1.53348 27.1629C2.51576 29.4706 3.92155 31.5434 5.71166 33.3228C7.50177 35.1021 9.58708 36.4995 11.9094 37.4758C14.3146 38.4874 16.8689 39.0001 19.5003 39.0001C22.1318 39.0001 24.6854 38.4874 27.0912 37.4758C29.4136 36.4995 31.4989 35.1021 33.289 33.3228C35.0784 31.5434 36.4842 29.4706 37.4665 27.1629C38.4842 24.7715 39 22.2332 39 19.6169C39 17.0013 38.4842 14.4629 37.4665 12.0716C36.4842 9.76322 35.0784 7.69107 33.289 5.91172C33.05 5.67422 32.806 5.44426 32.5576 5.22058L29.1885 8.56944C29.4407 8.78809 29.6873 9.01617 29.9262 9.25367" fill="#252525"/>
<path fill-rule="evenodd" clip-rule="evenodd" d="M19.5771 0C23.0114 0 25.7956 2.7844 25.7956 6.21883C25.7956 9.65325 23.0114 12.437 19.5771 12.437C16.1429 12.437 13.3586 9.65325 13.3586 6.21883C13.3586 2.7844 16.1429 0 19.5771 0" fill="#252525"/>
<path d="M75.106 14.4L70.93 27H68.446L65.332 17.676L62.164 27H59.662L55.486 14.4H57.916L61.048 23.976L64.306 14.4H66.466L69.652 24.03L72.874 14.4H75.106Z" fill="#252525"/>
<path d="M76.8842 17.388H79.1342V27H76.8842V17.388ZM78.0182 15.804C77.6102 15.804 77.2682 15.678 76.9922 15.426C76.7162 15.162 76.5782 14.838 76.5782 14.454C76.5782 14.07 76.7162 13.752 76.9922 13.5C77.2682 13.236 77.6102 13.104 78.0182 13.104C78.4262 13.104 78.7682 13.23 79.0442 13.482C79.3202 13.722 79.4582 14.028 79.4582 14.4C79.4582 14.796 79.3202 15.132 79.0442 15.408C78.7802 15.672 78.4382 15.804 78.0182 15.804Z" fill="#252525"/>
<path d="M86.0113 22.878L84.3373 24.462V27H82.0873V13.644H84.3373V21.708L88.9993 17.388H91.6993L87.6853 21.42L92.0773 27H89.3413L86.0113 22.878Z" fill="#252525"/>
<path d="M93.4428 17.388H95.6928V27H93.4428V17.388ZM94.5768 15.804C94.1688 15.804 93.8268 15.678 93.5508 15.426C93.2748 15.162 93.1368 14.838 93.1368 14.454C93.1368 14.07 93.2748 13.752 93.5508 13.5C93.8268 13.236 94.1688 13.104 94.5768 13.104C94.9848 13.104 95.3268 13.23 95.6028 13.482C95.8788 13.722 96.0168 14.028 96.0168 14.4C96.0168 14.796 95.8788 15.132 95.6028 15.408C95.3388 15.672 94.9968 15.804 94.5768 15.804Z" fill="#252525"/>
<path d="M110.778 17.28C111.99 17.28 112.95 17.634 113.658 18.342C114.366 19.038 114.72 20.088 114.72 21.492V27H112.47V21.78C112.47 20.94 112.284 20.31 111.912 19.89C111.54 19.458 111.006 19.242 110.31 19.242C109.554 19.242 108.948 19.494 108.492 19.998C108.036 20.49 107.808 21.198 107.808 22.122V27H105.558V21.78C105.558 20.94 105.372 20.31 105 19.89C104.628 19.458 104.094 19.242 103.398 19.242C102.63 19.242 102.018 19.488 101.562 19.98C101.118 20.472 100.896 21.186 100.896 22.122V27H98.6459V17.388H100.788V18.612C101.148 18.18 101.598 17.85 102.138 17.622C102.678 17.394 103.278 17.28 103.938 17.28C104.658 17.28 105.294 17.418 105.846 17.694C106.41 17.958 106.854 18.354 107.178 18.882C107.574 18.378 108.084 17.988 108.708 17.712C109.332 17.424 110.022 17.28 110.778 17.28Z" fill="#252525"/>
<path d="M126.719 22.248C126.719 22.404 126.707 22.626 126.683 22.914H119.141C119.273 23.622 119.615 24.186 120.167 24.606C120.731 25.014 121.427 25.218 122.255 25.218C123.311 25.218 124.181 24.87 124.865 24.174L126.071 25.56C125.639 26.076 125.093 26.466 124.433 26.73C123.773 26.994 123.029 27.126 122.201 27.126C121.145 27.126 120.215 26.916 119.411 26.496C118.607 26.076 117.983 25.494 117.539 24.75C117.107 23.994 116.891 23.142 116.891 22.194C116.891 21.258 117.101 20.418 117.521 19.674C117.953 18.918 118.547 18.33 119.303 17.91C120.059 17.49 120.911 17.28 121.859 17.28C122.795 17.28 123.629 17.49 124.361 17.91C125.105 18.318 125.681 18.9 126.089 19.656C126.509 20.4 126.719 21.264 126.719 22.248ZM121.859 19.08C121.139 19.08 120.527 19.296 120.023 19.728C119.531 20.148 119.231 20.712 119.123 21.42H124.577C124.481 20.724 124.187 20.16 123.695 19.728C123.203 19.296 122.591 19.08 121.859 19.08Z" fill="#252525"/>
<path d="M138.294 13.644V27H136.134V25.758C135.762 26.214 135.3 26.556 134.748 26.784C134.208 27.012 133.608 27.126 132.948 27.126C132.024 27.126 131.19 26.922 130.446 26.514C129.714 26.106 129.138 25.53 128.718 24.786C128.298 24.03 128.088 23.166 128.088 22.194C128.088 21.222 128.298 20.364 128.718 19.62C129.138 18.876 129.714 18.3 130.446 17.892C131.19 17.484 132.024 17.28 132.948 17.28C133.584 17.28 134.166 17.388 134.694 17.604C135.222 17.82 135.672 18.144 136.044 18.576V13.644H138.294ZM133.218 25.2C133.758 25.2 134.244 25.08 134.676 24.84C135.108 24.588 135.45 24.234 135.702 23.778C135.954 23.322 136.08 22.794 136.08 22.194C136.08 21.594 135.954 21.066 135.702 20.61C135.45 20.154 135.108 19.806 134.676 19.566C134.244 19.314 133.758 19.188 133.218 19.188C132.678 19.188 132.192 19.314 131.76 19.566C131.328 19.806 130.986 20.154 130.734 20.61C130.482 21.066 130.356 21.594 130.356 22.194C130.356 22.794 130.482 23.322 130.734 23.778C130.986 24.234 131.328 24.588 131.76 24.84C132.192 25.08 132.678 25.2 133.218 25.2Z" fill="#252525"/>
<path d="M141.238 17.388H143.488V27H141.238V17.388ZM142.372 15.804C141.964 15.804 141.622 15.678 141.346 15.426C141.07 15.162 140.932 14.838 140.932 14.454C140.932 14.07 141.07 13.752 141.346 13.5C141.622 13.236 141.964 13.104 142.372 13.104C142.78 13.104 143.122 13.23 143.398 13.482C143.674 13.722 143.812 14.028 143.812 14.4C143.812 14.796 143.674 15.132 143.398 15.408C143.134 15.672 142.792 15.804 142.372 15.804Z" fill="#252525"/>
<path d="M150.113 17.28C151.529 17.28 152.609 17.622 153.353 18.306C154.109 18.978 154.487 19.998 154.487 21.366V27H152.363V25.83C152.087 26.25 151.691 26.574 151.175 26.802C150.671 27.018 150.059 27.126 149.339 27.126C148.619 27.126 147.989 27.006 147.449 26.766C146.909 26.514 146.489 26.172 146.189 25.74C145.901 25.296 145.757 24.798 145.757 24.246C145.757 23.382 146.075 22.692 146.711 22.176C147.359 21.648 148.373 21.384 149.753 21.384H152.237V21.24C152.237 20.568 152.033 20.052 151.625 19.692C151.229 19.332 150.635 19.152 149.843 19.152C149.303 19.152 148.769 19.236 148.241 19.404C147.725 19.572 147.287 19.806 146.927 20.106L146.045 18.468C146.549 18.084 147.155 17.79 147.863 17.586C148.571 17.382 149.321 17.28 150.113 17.28ZM149.807 25.488C150.371 25.488 150.869 25.362 151.301 25.11C151.745 24.846 152.057 24.474 152.237 23.994V22.878H149.915C148.619 22.878 147.971 23.304 147.971 24.156C147.971 24.564 148.133 24.888 148.457 25.128C148.781 25.368 149.231 25.488 149.807 25.488Z" fill="#252525"/>
<path d="M162.565 14.4H168.073C169.417 14.4 170.611 14.664 171.655 15.192C172.699 15.708 173.509 16.446 174.085 17.406C174.661 18.354 174.949 19.452 174.949 20.7C174.949 21.948 174.661 23.052 174.085 24.012C173.509 24.96 172.699 25.698 171.655 26.226C170.611 26.742 169.417 27 168.073 27H162.565V14.4ZM167.965 25.02C168.889 25.02 169.699 24.846 170.395 24.498C171.103 24.138 171.643 23.634 172.015 22.986C172.399 22.326 172.591 21.564 172.591 20.7C172.591 19.836 172.399 19.08 172.015 18.432C171.643 17.772 171.103 17.268 170.395 16.92C169.699 16.56 168.889 16.38 167.965 16.38H164.905V25.02H167.965Z" fill="#252525"/>
<path d="M186.256 22.248C186.256 22.404 186.244 22.626 186.22 22.914H178.678C178.81 23.622 179.152 24.186 179.704 24.606C180.268 25.014 180.964 25.218 181.792 25.218C182.848 25.218 183.718 24.87 184.402 24.174L185.608 25.56C185.176 26.076 184.63 26.466 183.97 26.73C183.31 26.994 182.566 27.126 181.738 27.126C180.682 27.126 179.752 26.916 178.948 26.496C178.144 26.076 177.52 25.494 177.076 24.75C176.644 23.994 176.428 23.142 176.428 22.194C176.428 21.258 176.638 20.418 177.058 19.674C177.49 18.918 178.084 18.33 178.84 17.91C179.596 17.49 180.448 17.28 181.396 17.28C182.332 17.28 183.166 17.49 183.898 17.91C184.642 18.318 185.218 18.9 185.626 19.656C186.046 20.4 186.256 21.264 186.256 22.248ZM181.396 19.08C180.676 19.08 180.064 19.296 179.56 19.728C179.068 20.148 178.768 20.712 178.66 21.42H184.114C184.018 20.724 183.724 20.16 183.232 19.728C182.74 19.296 182.128 19.08 181.396 19.08Z" fill="#252525"/>
<path d="M197.723 17.388V27H195.581V25.776C195.221 26.208 194.771 26.544 194.231 26.784C193.691 27.012 193.109 27.126 192.485 27.126C191.201 27.126 190.187 26.772 189.443 26.064C188.711 25.344 188.345 24.282 188.345 22.878V17.388H190.595V22.572C190.595 23.436 190.787 24.084 191.171 24.516C191.567 24.936 192.125 25.146 192.845 25.146C193.649 25.146 194.285 24.9 194.753 24.408C195.233 23.904 195.473 23.184 195.473 22.248V17.388H197.723Z" fill="#252525"/>
<path d="M206.447 26.478C206.183 26.694 205.859 26.856 205.475 26.964C205.103 27.072 204.707 27.126 204.287 27.126C203.231 27.126 202.415 26.85 201.839 26.298C201.263 25.746 200.975 24.942 200.975 23.886V19.26H199.391V17.46H200.975V15.264H203.225V17.46H205.799V19.26H203.225V23.832C203.225 24.3 203.339 24.66 203.567 24.912C203.795 25.152 204.125 25.272 204.557 25.272C205.061 25.272 205.481 25.14 205.817 24.876L206.447 26.478Z" fill="#252525"/>
<path d="M211.268 27.126C210.488 27.126 209.726 27.024 208.982 26.82C208.238 26.616 207.644 26.358 207.2 26.046L208.064 24.336C208.496 24.624 209.012 24.858 209.612 25.038C210.224 25.206 210.824 25.29 211.412 25.29C212.756 25.29 213.428 24.936 213.428 24.228C213.428 23.892 213.254 23.658 212.906 23.526C212.57 23.394 212.024 23.268 211.268 23.148C210.476 23.028 209.828 22.89 209.324 22.734C208.832 22.578 208.4 22.308 208.028 21.924C207.668 21.528 207.488 20.982 207.488 20.286C207.488 19.374 207.866 18.648 208.622 18.108C209.39 17.556 210.422 17.28 211.718 17.28C212.378 17.28 213.038 17.358 213.698 17.514C214.358 17.658 214.898 17.856 215.318 18.108L214.454 19.818C213.638 19.338 212.72 19.098 211.7 19.098C211.04 19.098 210.536 19.2 210.188 19.404C209.852 19.596 209.684 19.854 209.684 20.178C209.684 20.538 209.864 20.796 210.224 20.952C210.596 21.096 211.166 21.234 211.934 21.366C212.702 21.486 213.332 21.624 213.824 21.78C214.316 21.936 214.736 22.2 215.084 22.572C215.444 22.944 215.624 23.472 215.624 24.156C215.624 25.056 215.234 25.776 214.454 26.316C213.674 26.856 212.612 27.126 211.268 27.126Z" fill="#252525"/>
<path d="M221.972 27.126C220.976 27.126 220.082 26.916 219.29 26.496C218.498 26.076 217.88 25.494 217.436 24.75C216.992 23.994 216.77 23.142 216.77 22.194C216.77 21.246 216.992 20.4 217.436 19.656C217.88 18.912 218.492 18.33 219.272 17.91C220.064 17.49 220.964 17.28 221.972 17.28C222.92 17.28 223.748 17.472 224.456 17.856C225.176 18.24 225.716 18.792 226.076 19.512L224.348 20.52C224.072 20.076 223.724 19.746 223.304 19.53C222.896 19.302 222.446 19.188 221.954 19.188C221.114 19.188 220.418 19.464 219.866 20.016C219.314 20.556 219.038 21.282 219.038 22.194C219.038 23.106 219.308 23.838 219.848 24.39C220.4 24.93 221.102 25.2 221.954 25.2C222.446 25.2 222.896 25.092 223.304 24.876C223.724 24.648 224.072 24.312 224.348 23.868L226.076 24.876C225.704 25.596 225.158 26.154 224.438 26.55C223.73 26.934 222.908 27.126 221.972 27.126Z" fill="#252525"/>
<path d="M233.387 17.28C234.599 17.28 235.571 17.634 236.303 18.342C237.035 19.05 237.401 20.1 237.401 21.492V27H235.151V21.78C235.151 20.94 234.953 20.31 234.557 19.89C234.161 19.458 233.597 19.242 232.865 19.242C232.037 19.242 231.383 19.494 230.903 19.998C230.423 20.49 230.183 21.204 230.183 22.14V27H227.933V13.644H230.183V18.504C230.555 18.108 231.011 17.808 231.551 17.604C232.103 17.388 232.715 17.28 233.387 17.28Z" fill="#252525"/>
<path d="M240.255 13.644H242.505V27H240.255V13.644Z" fill="#252525"/>
<path d="M249.13 17.28C250.546 17.28 251.626 17.622 252.37 18.306C253.126 18.978 253.504 19.998 253.504 21.366V27H251.38V25.83C251.104 26.25 250.708 26.574 250.192 26.802C249.688 27.018 249.076 27.126 248.356 27.126C247.636 27.126 247.006 27.006 246.466 26.766C245.926 26.514 245.506 26.172 245.206 25.74C244.918 25.296 244.774 24.798 244.774 24.246C244.774 23.382 245.092 22.692 245.728 22.176C246.376 21.648 247.39 21.384 248.77 21.384H251.254V21.24C251.254 20.568 251.05 20.052 250.642 19.692C250.246 19.332 249.652 19.152 248.86 19.152C248.32 19.152 247.786 19.236 247.258 19.404C246.742 19.572 246.304 19.806 245.944 20.106L245.062 18.468C245.566 18.084 246.172 17.79 246.88 17.586C247.588 17.382 248.338 17.28 249.13 17.28ZM248.824 25.488C249.388 25.488 249.886 25.362 250.318 25.11C250.762 24.846 251.074 24.474 251.254 23.994V22.878H248.932C247.636 22.878 246.988 23.304 246.988 24.156C246.988 24.564 247.15 24.888 247.474 25.128C247.798 25.368 248.248 25.488 248.824 25.488Z" fill="#252525"/>
<path d="M261.846 17.28C263.058 17.28 264.03 17.634 264.762 18.342C265.494 19.05 265.86 20.1 265.86 21.492V27H263.61V21.78C263.61 20.94 263.412 20.31 263.016 19.89C262.62 19.458 262.056 19.242 261.324 19.242C260.496 19.242 259.842 19.494 259.362 19.998C258.882 20.49 258.642 21.204 258.642 22.14V27H256.392V17.388H258.534V18.63C258.906 18.186 259.374 17.85 259.938 17.622C260.502 17.394 261.138 17.28 261.846 17.28Z" fill="#252525"/>
<path d="M278.216 13.644V27H276.056V25.758C275.684 26.214 275.222 26.556 274.67 26.784C274.13 27.012 273.53 27.126 272.87 27.126C271.946 27.126 271.112 26.922 270.368 26.514C269.636 26.106 269.06 25.53 268.64 24.786C268.22 24.03 268.01 23.166 268.01 22.194C268.01 21.222 268.22 20.364 268.64 19.62C269.06 18.876 269.636 18.3 270.368 17.892C271.112 17.484 271.946 17.28 272.87 17.28C273.506 17.28 274.088 17.388 274.616 17.604C275.144 17.82 275.594 18.144 275.966 18.576V13.644H278.216ZM273.14 25.2C273.68 25.2 274.166 25.08 274.598 24.84C275.03 24.588 275.372 24.234 275.624 23.778C275.876 23.322 276.002 22.794 276.002 22.194C276.002 21.594 275.876 21.066 275.624 20.61C275.372 20.154 275.03 19.806 274.598 19.566C274.166 19.314 273.68 19.188 273.14 19.188C272.6 19.188 272.114 19.314 271.682 19.566C271.25 19.806 270.908 20.154 270.656 20.61C270.404 21.066 270.278 21.594 270.278 22.194C270.278 22.794 270.404 23.322 270.656 23.778C270.908 24.234 271.25 24.588 271.682 24.84C272.114 25.08 272.6 25.2 273.14 25.2Z" fill="#252525"/>
</svg>
